<svg xmlns="http://www.w3.org/2000/svg" width="934" height="172" viewBox="0 0 934 172"><defs><linearGradient id="a" x1="50%" x2="50%" y1="0%" y2="100%"><stop offset="0%" stop-color="#"></stop><stop offset="3.421%" stop-color="#D4AF37"></stop><stop offset="26.032%" stop-color="#D4AF37"></stop><stop offset="62.094%" stop-color="#D4AF37"></stop><stop offset="100%" stop-color="#D4AF37"></stop></linearGradient><linearGradient id="b" x1="50%" x2="50%" y1="0%" y2="100%"><stop offset="0%" stop-color="#D4AF37"></stop><stop offset="3.421%" stop-color="#D4AF37"></stop><stop offset="26.032%" stop-color="#D4AF37"></stop><stop offset="62.094%" stop-color="#D4AF37"></stop><stop offset="100%" stop-color="#D4AF37"></stop></linearGradient><linearGradient id="c" x1="50%" x2="50%" y1="0%" y2="100%"><stop offset="0%" stop-color="#D4AF37"></stop><stop offset="3.421%" stop-color="#D4AF37"></stop><stop offset="26.032%" stop-color="#D4AF37"></stop><stop offset="62.094%" stop-color="#D4AF37"></stop><stop offset="100%" stop-color="#D4AF37"></stop></linearGradient><linearGradient id="d" x1="50%" x2="50%" y1="0%" y2="100%"><stop offset="0%" stop-color="#D4AF37"></stop><stop offset="3.421%" stop-color="#D4AF37"></stop><stop offset="26.032%" stop-color="#D4AF37"></stop><stop offset="62.094%" stop-color="#D4AF37"></stop><stop offset="100%" stop-color="#D4AF37"></stop></linearGradient></defs><g fill="none" fill-rule="evenodd"><path fill="#D4AF37" fill-rule="nonzero" d="M292.464,63.676 L359.631,63.676 L359.631,75.61 L305.316,75.61 L305.316,111.412 L355.806,111.412 L355.806,123.346 L305.316,123.346 L305.316,172 L292.464,172 L292.464,63.676 Z M389.632,63.676 L402.484,63.676 L402.484,172 L389.632,172 L389.632,63.676 Z M441.512,63.676 L460.637,63.676 L497.357,148.591 L497.663,148.591 L534.689,63.676 L553.355,63.676 L553.355,172 L540.503,172 L540.503,81.118 L540.197,81.118 L501.335,172 L493.532,172 L454.67,81.118 L454.364,81.118 L454.364,172 L441.512,172 L441.512,63.676 Z M627.573,63.676 L639.66,63.676 L685.713,172 L670.719,172 L659.703,145.378 L605.541,145.378 L594.372,172 L579.837,172 L627.573,63.676 Z M633.387,80.2 L633.081,80.2 L610.59,133.444 L654.807,133.444 L633.387,80.2 Z M770.794,75.61 L734.992,75.61 L734.992,172 L722.14,172 L722.14,75.61 L686.338,75.61 L686.338,63.676 L770.794,63.676 L770.794,75.61 Z M798.041,63.676 L810.893,63.676 L810.893,172 L798.041,172 L798.041,63.676 Z M875.472,114.931 L839.058,63.676 L855.582,63.676 L884.805,106.057 L913.722,63.676 L929.787,63.676 L893.373,114.931 L933.306,172 L916.323,172 L884.193,123.958 L851.91,172 L835.998,172 L875.472,114.931 Z"></path><rect width="38" height="172" x="60" fill="url(#a)"></rect><rect width="37" height="119" y="53" fill="url(#b)"></rect><rect width="38" height="128" x="120" y="44" fill="url(#c)"></rect><rect width="36" height="74" x="180" y="98" fill="url(#d)"></rect></g></svg>