<svg version="1.1" id="Layer_1" xmlns="http://www.w3.org/2000/svg" xmlns:xlink="http://www.w3.org/1999/xlink" x="0px" y="0px"
	 width="100%" viewBox="0 0 763 600" enable-background="new 0 0 763 600" xml:space="preserve">
<path fill="none" opacity="1.000000" stroke="none" 
	d="
M460.000000,601.000000 
	C306.666656,601.000000 153.833328,601.000000 1.000000,601.000000 
	C1.000000,401.000000 1.000000,201.000000 1.000000,1.000000 
	C255.333328,1.000000 509.666656,1.000000 764.000000,1.000000 
	C764.000000,201.000000 764.000000,401.000000 764.000000,601.000000 
	C662.833313,601.000000 561.666687,601.000000 460.000000,601.000000 
M285.479004,313.999603 
	C290.085846,313.671753 294.701202,313.433777 299.297974,312.999115 
	C312.897339,311.713287 326.525848,310.642242 340.076538,308.954163 
	C366.157806,305.705048 391.623260,299.493225 416.659332,291.627716 
	C454.431824,279.760834 490.775665,264.250275 526.179199,246.667496 
	C550.900024,234.390182 575.302612,221.396042 599.298462,207.756485 
	C622.102905,194.794144 644.736450,181.380753 666.467102,166.716263 
	C696.105225,146.715485 724.835876,125.368149 753.891113,104.508301 
	C756.506897,102.630318 758.651794,100.096413 761.015320,97.867142 
	C759.700500,97.233116 758.808411,97.187111 758.216003,97.586067 
	C751.623962,102.025078 744.169434,104.339249 736.568176,106.086617 
	C727.576843,108.153542 719.851135,116.012169 709.522278,112.087662 
	C709.152344,111.947098 708.559570,112.248611 708.121643,112.453270 
	C702.360229,115.146103 696.697144,118.073639 690.828186,120.504883 
	C685.111511,122.873001 679.225159,124.857071 673.335510,126.770309 
	C670.707336,127.624054 667.513184,127.225967 665.212585,128.524292 
	C626.299866,150.484238 587.732117,173.068771 548.547546,194.528030 
	C529.563110,204.924789 509.550629,213.474838 489.848907,222.524353 
	C457.342407,237.455475 423.954041,250.075989 389.617371,260.187744 
	C361.393005,268.499481 332.748596,274.895172 303.382263,276.773102 
	C287.433136,277.792999 271.381042,277.540192 255.428223,274.186096 
	C231.432907,269.140991 211.628448,257.894257 198.196014,237.207382 
	C187.393829,220.571289 183.392822,202.179504 185.809830,182.135101 
	C188.101273,163.132019 194.858963,146.066452 204.559219,129.852142 
	C215.316513,111.870972 229.712234,97.270538 246.531052,85.100670 
	C267.462372,69.955055 290.497070,58.845356 315.446411,52.073284 
	C329.624176,48.224964 344.041138,45.258026 358.697723,41.812519 
	C359.932526,30.177204 361.222900,18.018568 362.597656,5.064473 
	C354.455322,6.439660 347.054962,7.800993 339.618805,8.925192 
	C314.180756,12.770912 289.865143,20.410999 266.467651,30.924595 
	C229.617844,47.482956 198.040573,70.828873 173.235092,103.128922 
	C156.138916,125.390419 144.436188,149.933441 142.286789,177.934555 
	C140.646561,199.302536 141.296677,220.772598 149.879105,241.261902 
	C162.227127,270.740997 182.280396,292.021637 212.671310,303.028900 
	C235.898087,311.441345 260.024170,313.781586 285.479004,313.999603 
M315.500000,184.000000 
	C289.767853,184.000000 264.035706,184.000000 238.012985,184.000000 
	C238.012985,208.449554 237.963181,232.084091 238.147141,255.716827 
	C238.157272,257.018280 239.851212,258.761841 241.199783,259.525696 
	C252.169220,265.739166 264.491455,266.366302 276.562408,266.790558 
	C286.740051,267.148315 297.028046,266.083710 307.184326,264.923584 
	C321.857788,263.247528 336.669495,261.869080 351.040009,258.654816 
	C376.437561,252.974152 401.534027,245.953384 426.792389,239.637115 
	C430.230469,238.777344 431.132446,237.091812 431.078064,233.705200 
	C430.880188,221.383575 431.000336,209.056854 431.000519,196.732056 
	C431.000580,192.628479 431.000519,188.524902 431.000519,184.000000 
	C392.378784,184.000000 354.439392,184.000000 315.500000,184.000000 
M352.500000,379.005737 
	C378.572540,379.005737 404.645050,379.005737 430.809082,379.005737 
	C430.809082,352.357758 430.809082,326.415192 430.809082,300.318909 
	C416.935791,303.620392 403.255127,306.779633 389.624054,310.139832 
	C360.751831,317.257050 331.523621,322.826691 301.895813,324.634399 
	C283.305939,325.768677 264.511230,323.591187 245.811554,322.822784 
	C243.427582,322.724854 241.062698,322.162170 238.342209,321.764069 
	C238.342209,341.170166 238.342209,359.869415 238.342209,379.005737 
	C276.288361,379.005737 313.894196,379.005737 352.500000,379.005737 
M677.999146,529.620483 
	C677.884644,528.188721 677.770142,526.756958 677.652100,525.281616 
	C453.008850,525.281616 228.784698,525.281616 4.394083,525.281616 
	C4.394083,529.600830 4.394083,533.631592 4.394083,537.707886 
	C229.012329,537.707886 453.236542,537.707886 677.999756,537.707886 
	C677.999756,535.136536 677.999756,532.849426 677.999146,529.620483 
M181.002121,428.087036 
	C181.002121,454.644745 181.002121,481.202484 181.002121,507.662872 
	C186.090027,507.662872 190.343155,507.662872 195.066528,507.662872 
	C195.066528,489.453857 195.066528,471.574188 195.066528,452.301575 
	C218.720978,472.419708 241.412033,491.718506 264.677673,511.505951 
	C264.677673,483.483398 264.677673,456.461487 264.677673,429.419006 
	C259.643524,429.419006 254.938660,429.419006 249.645966,429.419006 
	C249.645966,447.160553 249.645966,464.488525 249.645966,482.479004 
	C236.675079,471.466400 224.375244,461.060059 212.117340,450.604553 
	C202.593170,442.480835 193.109558,434.309418 183.636734,426.125793 
	C181.867981,424.597809 181.062439,424.896057 181.002121,428.087036 
M423.000305,449.650146 
	C422.785828,440.447723 418.000305,432.639923 408.930481,431.211884 
	C395.984344,429.173523 382.734985,429.061188 369.361816,428.108185 
	C369.361816,455.577332 369.361816,481.604492 369.361816,507.717224 
	C374.312164,507.717224 378.897308,507.717224 384.040466,507.717224 
	C384.040466,497.250671 384.040466,487.054962 384.040466,475.360596 
	C390.690063,483.058289 396.756561,489.322205 401.934387,496.250305 
	C409.978455,507.013428 417.923340,510.556519 429.266327,506.949799 
	C419.124390,495.834351 409.124084,484.874084 398.528351,473.261261 
	C415.691254,472.869446 424.162781,461.342102 423.000305,449.650146 
M517.622559,496.920929 
	C519.033325,499.740417 520.308960,502.640533 521.920349,505.340271 
	C522.579224,506.444122 523.919800,507.789490 525.027283,507.862885 
	C529.402283,508.152771 533.807922,507.981873 539.213196,507.981873 
	C524.179260,479.750641 509.625244,452.420593 494.586670,424.180603 
	C479.108795,452.487000 464.129883,479.880829 448.981934,507.583832 
	C463.972076,509.092651 463.973267,509.093231 470.010834,496.954956 
	C471.037537,494.890778 471.767609,492.597198 473.162811,490.825409 
	C474.182434,489.530640 476.046875,488.168823 477.571808,488.124969 
	C486.392242,487.871246 495.264923,488.522858 504.038116,487.830994 
	C510.831329,487.295288 515.023438,489.371887 517.055481,495.809784 
	C517.105591,495.968475 517.168152,496.123230 517.622559,496.920929 
M645.002014,493.270416 
	C645.002014,485.998810 645.002014,478.727234 645.002014,470.842407 
	C657.316772,470.842407 669.029968,470.842407 680.686401,470.842407 
	C680.686401,466.955017 680.686401,463.698822 680.686401,459.823914 
	C668.674133,459.823914 656.966064,459.823914 645.322266,459.823914 
	C645.322266,452.935181 645.322266,446.684204 645.322266,439.997955 
	C655.929077,439.997955 666.225037,439.796967 676.506836,440.091064 
	C680.991699,440.219330 682.187439,438.645447 682.162415,434.343903 
	C682.138306,430.195374 680.867371,428.829803 676.697571,428.919464 
	C665.545105,429.159332 654.384094,429.000793 643.226440,429.000610 
	C639.287170,429.000519 635.347961,429.000610 631.403870,429.000610 
	C631.403870,455.680023 631.403870,481.703461 631.403870,507.999939 
	C646.781189,507.999939 661.757568,507.867798 676.728882,508.084473 
	C680.943848,508.145477 682.116943,506.726349 682.161682,502.627136 
	C682.209106,498.284943 680.927002,496.763306 676.478455,496.909637 
	C667.329163,497.210571 658.162964,497.007019 649.003723,496.991455 
	C647.064270,496.988159 644.723694,497.478577 645.002014,493.270416 
M120.000465,453.395691 
	C120.000465,449.109192 120.000465,444.822662 120.000465,439.922607 
	C132.231628,439.922607 143.944885,439.922607 155.727356,439.922607 
	C155.727356,436.034973 155.727356,432.781067 155.727356,429.362244 
	C139.088531,429.362244 122.724564,429.362244 106.264053,429.362244 
	C106.264053,455.631104 106.264053,481.537354 106.264053,507.654510 
	C122.895622,507.654510 139.261200,507.654510 155.736542,507.654510 
	C155.736542,504.051392 155.736542,500.797424 155.736542,496.916901 
	C143.776230,496.916901 132.064941,496.916901 120.274170,496.916901 
	C120.274170,488.033691 120.274170,479.784637 120.274170,470.923584 
	C132.248184,470.923584 143.963638,470.923584 155.730820,470.923584 
	C155.730820,467.047668 155.730820,463.791931 155.730820,459.909027 
	C143.766617,459.909027 132.056641,459.909027 120.549004,459.909027 
	C120.264183,458.968811 120.101593,458.662659 120.088997,458.350464 
	C120.035332,457.020386 120.026047,455.688568 120.000465,453.395691 
M20.002024,440.497070 
	C9.640594,449.827148 6.499368,461.907257 8.198380,475.078552 
	C9.412270,484.489075 14.080938,492.451508 21.876591,498.577271 
	C29.914398,504.893341 38.844345,507.826050 48.866180,509.278778 
	C59.270931,510.787018 68.721985,508.516266 78.112328,504.873138 
	C79.320869,504.404266 80.748093,502.744476 80.859108,501.525726 
	C81.211731,497.654327 80.989586,493.730621 80.989586,489.209106 
	C79.283592,490.122650 78.263809,490.591125 77.322754,491.184479 
	C65.892502,498.391479 53.922131,499.860229 41.165756,494.997681 
	C27.320606,489.720062 19.229866,472.625946 24.222935,459.438049 
	C31.977949,438.955139 58.048344,434.536804 74.422173,443.930695 
	C76.350380,445.036896 78.333412,446.047577 81.000031,447.484650 
	C81.000031,443.295929 80.898216,440.008118 81.032280,436.729950 
	C81.139259,434.114136 80.391693,432.846863 77.655289,431.672424 
	C66.856834,427.037689 55.772263,425.834381 44.384548,428.121826 
	C35.437767,429.918945 27.075546,433.246368 20.002024,440.497070 
M324.000732,467.500000 
	C324.000732,458.420166 324.000732,449.340363 324.000732,439.826294 
	C331.389954,439.826294 337.980804,439.826294 344.586609,439.826294 
	C344.586609,435.991760 344.586609,432.625000 344.586609,429.314209 
	C325.928070,429.314209 307.684357,429.314209 289.411072,429.314209 
	C289.411072,433.004883 289.411072,436.371735 289.411072,440.191437 
	C296.405457,440.191437 302.993042,440.191437 310.186523,440.191437 
	C310.186523,463.011566 310.186523,485.377319 310.186523,507.678528 
	C315.064850,507.678528 319.318787,507.678528 324.000732,507.678528 
	C324.000732,494.407440 324.000732,481.453705 324.000732,467.500000 
M561.999207,459.500000 
	C561.999207,475.568298 561.999207,491.636566 561.999207,507.708710 
	C577.360779,507.708710 591.938782,507.708710 606.563232,507.708710 
	C606.563232,504.048950 606.563232,500.693787 606.563232,496.846680 
	C596.554749,496.846680 586.976074,496.846680 576.805054,496.846680 
	C576.805054,473.989594 576.805054,451.626801 576.805054,429.321472 
	C571.604309,429.321472 567.019836,429.321472 561.999207,429.321472 
	C561.999207,439.257721 561.999207,448.878845 561.999207,459.500000 
M344.659546,595.989502 
	C346.606537,595.989502 348.553528,595.989502 350.980530,595.989502 
	C350.980530,591.421631 350.980530,587.371399 350.980530,582.490234 
	C356.727905,588.566833 357.886047,600.076599 370.139374,595.058960 
	C366.814697,589.862244 363.526886,584.723145 360.320740,579.711670 
	C361.563049,578.719604 362.725067,578.171204 363.307404,577.254578 
	C364.974548,574.630371 367.643280,571.848816 367.625732,569.143921 
	C367.602509,565.561829 366.845062,560.873779 361.820068,560.005310 
	C355.454865,558.905090 349.031128,558.143677 342.035706,557.151550 
	C342.035706,570.394470 342.008087,582.179260 342.108093,593.962952 
	C342.113739,594.630127 343.166260,595.288391 344.659546,595.989502 
M178.000427,568.473389 
	C174.631729,577.461731 171.263031,586.450012 167.794464,595.704773 
	C173.215439,596.231506 178.219269,597.473389 179.189819,590.218872 
	C179.305573,589.353638 181.246658,588.256042 182.444717,588.109741 
	C185.071182,587.788879 187.803360,587.739624 190.412460,588.123230 
	C191.701782,588.312683 193.384689,589.447205 193.910919,590.600647 
	C196.722855,596.763916 197.051575,597.006897 204.965530,595.303528 
	C204.805023,594.522400 204.746246,593.703003 204.468658,592.966125 
	C200.827072,583.298767 197.174240,573.635498 193.477493,563.989136 
	C192.415161,561.217041 192.323395,558.044373 187.740631,557.822510 
	C183.009445,557.593445 180.739120,559.270813 179.716293,563.582458 
	C179.380325,564.998840 178.655594,566.322998 178.000427,568.473389 
M656.485229,561.012146 
	C651.342957,565.636780 651.884277,574.232056 658.199402,577.709961 
	C660.334351,578.885742 662.693970,579.714355 664.667053,581.104553 
	C666.309204,582.261475 667.837341,583.845520 668.777039,585.585449 
	C669.091675,586.167847 667.514160,588.720764 666.663330,588.795288 
	C664.606873,588.975464 662.391907,588.450439 660.394226,587.763550 
	C659.279724,587.380371 658.471924,586.105286 658.362976,586.004761 
	C656.070801,587.770874 653.994019,589.371033 651.934509,590.957825 
	C656.396729,597.685852 663.087402,598.167358 669.316956,596.502441 
	C672.660950,595.608704 676.376770,591.831360 677.635193,588.492310 
	C679.204651,584.328064 678.694946,579.148010 673.746643,576.283447 
	C670.760437,574.554626 667.589294,573.125061 664.710327,571.241394 
	C663.565430,570.492310 662.985352,568.879944 662.148132,567.660645 
	C663.615723,566.776978 665.137573,565.105530 666.537598,565.202026 
	C668.440002,565.333191 670.249207,566.816284 672.616943,567.972839 
	C674.160339,566.290161 675.924316,564.366882 677.688538,562.443298 
	C671.628967,555.843201 664.653198,555.182678 656.485229,561.012146 
M6.000913,592.258911 
	C6.595256,596.502014 8.094819,597.008362 14.999845,595.121155 
	C14.999845,593.058472 14.999846,590.915222 14.999846,588.772034 
	C14.999846,586.664246 14.999845,584.556519 14.999845,581.998169 
	C17.372869,581.998169 19.162830,582.056396 20.947910,581.987732 
	C27.388409,581.740051 31.462620,577.835388 32.460197,571.012695 
	C33.245094,565.644592 29.990816,560.273926 24.082579,559.106873 
	C18.372841,557.978943 12.420079,558.081299 5.999324,557.600220 
	C5.999324,569.474121 5.999324,580.389587 6.000913,592.258911 
M515.197510,558.227600 
	C512.600769,558.227600 510.004028,558.227600 507.416748,558.227600 
	C507.416748,571.036194 507.416748,583.412415 507.416748,595.660645 
	C510.430084,595.660645 513.022278,595.660645 515.810547,595.660645 
	C515.810547,583.194702 515.810547,571.064575 515.197510,558.227600 
z"/>
<path fill="#D4AF37" opacity="1.000000" stroke="#D4AF37" 
	d="
M284.983582,313.999542 
	C260.024170,313.781586 235.898087,311.441345 212.671310,303.028900 
	C182.280396,292.021637 162.227127,270.740997 149.879105,241.261902 
	C141.296677,220.772598 140.646561,199.302536 142.286789,177.934555 
	C144.436188,149.933441 156.138916,125.390419 173.235092,103.128922 
	C198.040573,70.828873 229.617844,47.482956 266.467651,30.924595 
	C289.865143,20.410999 314.180756,12.770912 339.618805,8.925192 
	C347.054962,7.800993 354.455322,6.439660 362.597656,5.064473 
	C361.222900,18.018568 359.932526,30.177204 358.697723,41.812519 
	C344.041138,45.258026 329.624176,48.224964 315.446411,52.073284 
	C290.497070,58.845356 267.462372,69.955055 246.531052,85.100670 
	C229.712234,97.270538 215.316513,111.870972 204.559219,129.852142 
	C194.858963,146.066452 188.101273,163.132019 185.809830,182.135101 
	C183.392822,202.179504 187.393829,220.571289 198.196014,237.207382 
	C211.628448,257.894257 231.432907,269.140991 255.428223,274.186096 
	C271.381042,277.540192 287.433136,277.792999 303.382263,276.773102 
	C332.748596,274.895172 361.393005,268.499481 389.617371,260.187744 
	C423.954041,250.075989 457.342407,237.455475 489.848907,222.524353 
	C509.550629,213.474838 529.563110,204.924789 548.547546,194.528030 
	C587.732117,173.068771 626.299866,150.484238 665.212585,128.524292 
	C667.513184,127.225967 670.707336,127.624054 673.335510,126.770309 
	C679.225159,124.857071 685.111511,122.873001 690.828186,120.504883 
	C696.697144,118.073639 702.360229,115.146103 708.121643,112.453270 
	C708.559570,112.248611 709.152344,111.947098 709.522278,112.087662 
	C719.851135,116.012169 727.576843,108.153542 736.568176,106.086617 
	C744.169434,104.339249 751.623962,102.025078 758.216003,97.586067 
	C758.808411,97.187111 759.700500,97.233116 761.015320,97.867142 
	C758.651794,100.096413 756.506897,102.630318 753.891113,104.508301 
	C724.835876,125.368149 696.105225,146.715485 666.467102,166.716263 
	C644.736450,181.380753 622.102905,194.794144 599.298462,207.756485 
	C575.302612,221.396042 550.900024,234.390182 526.179199,246.667496 
	C490.775665,264.250275 454.431824,279.760834 416.659332,291.627716 
	C391.623260,299.493225 366.157806,305.705048 340.076538,308.954163 
	C326.525848,310.642242 312.897339,311.713287 299.297974,312.999115 
	C294.701202,313.433777 290.085846,313.671753 284.983582,313.999542 
z"/>
<path fill="#D4AF37" opacity="1.000000" stroke="#D4AF37" 
	d="
M316.000000,184.000000 
	C354.439392,184.000000 392.378784,184.000000 431.000519,184.000000 
	C431.000519,188.524902 431.000580,192.628479 431.000519,196.732056 
	C431.000336,209.056854 430.880188,221.383575 431.078064,233.705200 
	C431.132446,237.091812 430.230469,238.777344 426.792389,239.637115 
	C401.534027,245.953384 376.437561,252.974152 351.040009,258.654816 
	C336.669495,261.869080 321.857788,263.247528 307.184326,264.923584 
	C297.028046,266.083710 286.740051,267.148315 276.562408,266.790558 
	C264.491455,266.366302 252.169220,265.739166 241.199783,259.525696 
	C239.851212,258.761841 238.157272,257.018280 238.147141,255.716827 
	C237.963181,232.084091 238.012985,208.449554 238.012985,184.000000 
	C264.035706,184.000000 289.767853,184.000000 316.000000,184.000000 
z"/>
<path fill="#D4AF37" opacity="1.000000" stroke="#D4AF37" 
	d="
M352.000000,379.005737 
	C313.894196,379.005737 276.288361,379.005737 238.342209,379.005737 
	C238.342209,359.869415 238.342209,341.170166 238.342209,321.764069 
	C241.062698,322.162170 243.427582,322.724854 245.811554,322.822784 
	C264.511230,323.591187 283.305939,325.768677 301.895813,324.634399 
	C331.523621,322.826691 360.751831,317.257050 389.624054,310.139832 
	C403.255127,306.779633 416.935791,303.620392 430.809082,300.318909 
	C430.809082,326.415192 430.809082,352.357758 430.809082,379.005737 
	C404.645050,379.005737 378.572540,379.005737 352.000000,379.005737 
z"/>
<path fill="#D4AF37" opacity="1.000000" stroke="#D4AF37" 
	d="
M677.999451,530.091370 
	C677.999756,532.849426 677.999756,535.136536 677.999756,537.707886 
	C453.236542,537.707886 229.012329,537.707886 4.394083,537.707886 
	C4.394083,533.631592 4.394083,529.600830 4.394083,525.281616 
	C228.784698,525.281616 453.008850,525.281616 677.652100,525.281616 
	C677.770142,526.756958 677.884644,528.188721 677.999451,530.091370 
z"/>
<path fill="#D4AF37" opacity="1.000000" stroke="#D4AF37" 
	d="
M181.006531,427.657410 
	C181.062439,424.896057 181.867981,424.597809 183.636734,426.125793 
	C193.109558,434.309418 202.593170,442.480835 212.117340,450.604553 
	C224.375244,461.060059 236.675079,471.466400 249.645966,482.479004 
	C249.645966,464.488525 249.645966,447.160553 249.645966,429.419006 
	C254.938660,429.419006 259.643524,429.419006 264.677673,429.419006 
	C264.677673,456.461487 264.677673,483.483398 264.677673,511.505951 
	C241.412033,491.718506 218.720978,472.419708 195.066528,452.301575 
	C195.066528,471.574188 195.066528,489.453857 195.066528,507.662872 
	C190.343155,507.662872 186.090027,507.662872 181.002121,507.662872 
	C181.002121,481.202484 181.002121,454.644745 181.006531,427.657410 
z"/>
<path fill="#D4AF37" opacity="1.000000" stroke="#D4AF37" 
	d="
M423.000366,450.100952 
	C424.162781,461.342102 415.691254,472.869446 398.528351,473.261261 
	C409.124084,484.874084 419.124390,495.834351 429.266327,506.949799 
	C417.923340,510.556519 409.978455,507.013428 401.934387,496.250305 
	C396.756561,489.322205 390.690063,483.058289 384.040466,475.360596 
	C384.040466,487.054962 384.040466,497.250671 384.040466,507.717224 
	C378.897308,507.717224 374.312164,507.717224 369.361816,507.717224 
	C369.361816,481.604492 369.361816,455.577332 369.361816,428.108185 
	C382.734985,429.061188 395.984344,429.173523 408.930481,431.211884 
	C418.000305,432.639923 422.785828,440.447723 423.000366,450.100952 
M384.000061,452.496155 
	C384.000061,456.577362 384.000061,460.658600 384.000061,466.365295 
	C391.237335,464.790344 397.565552,463.994049 403.462738,461.952698 
	C408.507324,460.206573 409.258301,455.226959 408.971924,450.375153 
	C408.679657,445.424500 406.000916,441.529572 401.454803,440.419952 
	C395.992188,439.086639 390.184570,439.166931 384.000061,438.585724 
	C384.000061,443.583923 384.000061,447.544434 384.000061,452.496155 
z"/>
<path fill="#D4AF37" opacity="1.000000" stroke="#D4AF37" 
	d="
M517.423706,496.600403 
	C517.168152,496.123230 517.105591,495.968475 517.055481,495.809784 
	C515.023438,489.371887 510.831329,487.295288 504.038116,487.830994 
	C495.264923,488.522858 486.392242,487.871246 477.571808,488.124969 
	C476.046875,488.168823 474.182434,489.530640 473.162811,490.825409 
	C471.767609,492.597198 471.037537,494.890778 470.010834,496.954956 
	C463.973267,509.093231 463.972076,509.092651 448.981934,507.583832 
	C464.129883,479.880829 479.108795,452.487000 494.586670,424.180603 
	C509.625244,452.420593 524.179260,479.750641 539.213196,507.981873 
	C533.807922,507.981873 529.402283,508.152771 525.027283,507.862885 
	C523.919800,507.789490 522.579224,506.444122 521.920349,505.340271 
	C520.308960,502.640533 519.033325,499.740417 517.423706,496.600403 
M497.432037,478.000458 
	C500.676971,478.000458 503.921906,478.000458 507.950684,478.000458 
	C503.046906,468.188995 498.530273,459.152161 493.719482,449.526794 
	C488.852448,459.328705 484.361725,468.372742 479.581177,478.000458 
	C485.816315,478.000458 491.134705,478.000458 497.432037,478.000458 
z"/>
<path fill="#D4AF37" opacity="1.000000" stroke="#D4AF37" 
	d="
M645.005981,493.747589 
	C644.723694,497.478577 647.064270,496.988159 649.003723,496.991455 
	C658.162964,497.007019 667.329163,497.210571 676.478455,496.909637 
	C680.927002,496.763306 682.209106,498.284943 682.161682,502.627136 
	C682.116943,506.726349 680.943848,508.145477 676.728882,508.084473 
	C661.757568,507.867798 646.781189,507.999939 631.403870,507.999939 
	C631.403870,481.703461 631.403870,455.680023 631.403870,429.000610 
	C635.347961,429.000610 639.287170,429.000519 643.226440,429.000610 
	C654.384094,429.000793 665.545105,429.159332 676.697571,428.919464 
	C680.867371,428.829803 682.138306,430.195374 682.162415,434.343903 
	C682.187439,438.645447 680.991699,440.219330 676.506836,440.091064 
	C666.225037,439.796967 655.929077,439.997955 645.322266,439.997955 
	C645.322266,446.684204 645.322266,452.935181 645.322266,459.823914 
	C656.966064,459.823914 668.674133,459.823914 680.686401,459.823914 
	C680.686401,463.698822 680.686401,466.955017 680.686401,470.842407 
	C669.029968,470.842407 657.316772,470.842407 645.002014,470.842407 
	C645.002014,478.727234 645.002014,485.998810 645.005981,493.747589 
z"/>
<path fill="#D4AF37" opacity="1.000000" stroke="#D4AF37" 
	d="
M120.000511,453.876526 
	C120.026047,455.688568 120.035332,457.020386 120.088997,458.350464 
	C120.101593,458.662659 120.264183,458.968811 120.549004,459.909027 
	C132.056641,459.909027 143.766617,459.909027 155.730820,459.909027 
	C155.730820,463.791931 155.730820,467.047668 155.730820,470.923584 
	C143.963638,470.923584 132.248184,470.923584 120.274170,470.923584 
	C120.274170,479.784637 120.274170,488.033691 120.274170,496.916901 
	C132.064941,496.916901 143.776230,496.916901 155.736542,496.916901 
	C155.736542,500.797424 155.736542,504.051392 155.736542,507.654510 
	C139.261200,507.654510 122.895622,507.654510 106.264053,507.654510 
	C106.264053,481.537354 106.264053,455.631104 106.264053,429.362244 
	C122.724564,429.362244 139.088531,429.362244 155.727356,429.362244 
	C155.727356,432.781067 155.727356,436.034973 155.727356,439.922607 
	C143.944885,439.922607 132.231628,439.922607 120.000465,439.922607 
	C120.000465,444.822662 120.000465,449.109192 120.000511,453.876526 
z"/>
<path fill="#D4AF37" opacity="1.000000" stroke="#D4AF37" 
	d="
M20.253845,440.246155 
	C27.075546,433.246368 35.437767,429.918945 44.384548,428.121826 
	C55.772263,425.834381 66.856834,427.037689 77.655289,431.672424 
	C80.391693,432.846863 81.139259,434.114136 81.032280,436.729950 
	C80.898216,440.008118 81.000031,443.295929 81.000031,447.484650 
	C78.333412,446.047577 76.350380,445.036896 74.422173,443.930695 
	C58.048344,434.536804 31.977949,438.955139 24.222935,459.438049 
	C19.229866,472.625946 27.320606,489.720062 41.165756,494.997681 
	C53.922131,499.860229 65.892502,498.391479 77.322754,491.184479 
	C78.263809,490.591125 79.283592,490.122650 80.989586,489.209106 
	C80.989586,493.730621 81.211731,497.654327 80.859108,501.525726 
	C80.748093,502.744476 79.320869,504.404266 78.112328,504.873138 
	C68.721985,508.516266 59.270931,510.787018 48.866180,509.278778 
	C38.844345,507.826050 29.914398,504.893341 21.876591,498.577271 
	C14.080938,492.451508 9.412270,484.489075 8.198380,475.078552 
	C6.499368,461.907257 9.640594,449.827148 20.253845,440.246155 
z"/>
<path fill="#D4AF37" opacity="1.000000" stroke="#D4AF37" 
	d="
M324.000732,468.000000 
	C324.000732,481.453705 324.000732,494.407440 324.000732,507.678528 
	C319.318787,507.678528 315.064850,507.678528 310.186523,507.678528 
	C310.186523,485.377319 310.186523,463.011566 310.186523,440.191437 
	C302.993042,440.191437 296.405457,440.191437 289.411072,440.191437 
	C289.411072,436.371735 289.411072,433.004883 289.411072,429.314209 
	C307.684357,429.314209 325.928070,429.314209 344.586609,429.314209 
	C344.586609,432.625000 344.586609,435.991760 344.586609,439.826294 
	C337.980804,439.826294 331.389954,439.826294 324.000732,439.826294 
	C324.000732,449.340363 324.000732,458.420166 324.000732,468.000000 
z"/>
<path fill="#D4AF37" opacity="1.000000" stroke="#D4AF37" 
	d="
M561.999207,459.000000 
	C561.999207,448.878845 561.999207,439.257721 561.999207,429.321472 
	C567.019836,429.321472 571.604309,429.321472 576.805054,429.321472 
	C576.805054,451.626801 576.805054,473.989594 576.805054,496.846680 
	C586.976074,496.846680 596.554749,496.846680 606.563232,496.846680 
	C606.563232,500.693787 606.563232,504.048950 606.563232,507.708710 
	C591.938782,507.708710 577.360779,507.708710 561.999207,507.708710 
	C561.999207,491.636566 561.999207,475.568298 561.999207,459.000000 
z"/>
<path fill="#D4AF37" opacity="1.000000" stroke="#D4AF37" 
	d="
M344.195526,595.970154 
	C343.166260,595.288391 342.113739,594.630127 342.108093,593.962952 
	C342.008087,582.179260 342.035706,570.394470 342.035706,557.151550 
	C349.031128,558.143677 355.454865,558.905090 361.820068,560.005310 
	C366.845062,560.873779 367.602509,565.561829 367.625732,569.143921 
	C367.643280,571.848816 364.974548,574.630371 363.307404,577.254578 
	C362.725067,578.171204 361.563049,578.719604 360.320740,579.711670 
	C363.526886,584.723145 366.814697,589.862244 370.139374,595.058960 
	C357.886047,600.076599 356.727905,588.566833 350.980530,582.490234 
	C350.980530,587.371399 350.980530,591.421631 350.980530,595.989502 
	C348.553528,595.989502 346.606537,595.989502 344.195526,595.970154 
M358.286499,570.266907 
	C358.265564,565.485718 355.095154,565.097534 351.237305,565.146362 
	C351.237305,568.091614 351.237305,570.815369 351.237305,575.334229 
	C354.138153,573.493530 356.100983,572.248047 358.286499,570.266907 
z"/>
<path fill="#D4AF37" opacity="1.000000" stroke="#D4AF37" 
	d="
M178.054535,568.081360 
	C178.655594,566.322998 179.380325,564.998840 179.716293,563.582458 
	C180.739120,559.270813 183.009445,557.593445 187.740631,557.822510 
	C192.323395,558.044373 192.415161,561.217041 193.477493,563.989136 
	C197.174240,573.635498 200.827072,583.298767 204.468658,592.966125 
	C204.746246,593.703003 204.805023,594.522400 204.965530,595.303528 
	C197.051575,597.006897 196.722855,596.763916 193.910919,590.600647 
	C193.384689,589.447205 191.701782,588.312683 190.412460,588.123230 
	C187.803360,587.739624 185.071182,587.788879 182.444717,588.109741 
	C181.246658,588.256042 179.305573,589.353638 179.189819,590.218872 
	C178.219269,597.473389 173.215439,596.231506 167.794464,595.704773 
	C171.263031,586.450012 174.631729,577.461731 178.054535,568.081360 
M187.941956,572.961731 
	C187.479172,571.921631 187.016403,570.881592 186.199539,569.045715 
	C184.821976,573.329529 183.646881,576.983765 182.481369,580.608154 
	C185.384048,580.608154 187.596466,580.608154 190.271942,580.608154 
	C189.416565,577.989441 188.717041,575.847961 187.941956,572.961731 
z"/>
<path fill="#D4AF37" opacity="1.000000" stroke="#D4AF37" 
	d="
M656.756836,560.739502 
	C664.653198,555.182678 671.628967,555.843201 677.688538,562.443298 
	C675.924316,564.366882 674.160339,566.290161 672.616943,567.972839 
	C670.249207,566.816284 668.440002,565.333191 666.537598,565.202026 
	C665.137573,565.105530 663.615723,566.776978 662.148132,567.660645 
	C662.985352,568.879944 663.565430,570.492310 664.710327,571.241394 
	C667.589294,573.125061 670.760437,574.554626 673.746643,576.283447 
	C678.694946,579.148010 679.204651,584.328064 677.635193,588.492310 
	C676.376770,591.831360 672.660950,595.608704 669.316956,596.502441 
	C663.087402,598.167358 656.396729,597.685852 651.934509,590.957825 
	C653.994019,589.371033 656.070801,587.770874 658.362976,586.004761 
	C658.471924,586.105286 659.279724,587.380371 660.394226,587.763550 
	C662.391907,588.450439 664.606873,588.975464 666.663330,588.795288 
	C667.514160,588.720764 669.091675,586.167847 668.777039,585.585449 
	C667.837341,583.845520 666.309204,582.261475 664.667053,581.104553 
	C662.693970,579.714355 660.334351,578.885742 658.199402,577.709961 
	C651.884277,574.232056 651.342957,565.636780 656.756836,560.739502 
z"/>
<path fill="#D4AF37" opacity="1.000000" stroke="#D4AF37" 
	d="
M6.000118,591.781982 
	C5.999324,580.389587 5.999324,569.474121 5.999324,557.600220 
	C12.420079,558.081299 18.372841,557.978943 24.082579,559.106873 
	C29.990816,560.273926 33.245094,565.644592 32.460197,571.012695 
	C31.462620,577.835388 27.388409,581.740051 20.947910,581.987732 
	C19.162830,582.056396 17.372869,581.998169 14.999845,581.998169 
	C14.999845,584.556519 14.999846,586.664246 14.999846,588.772034 
	C14.999846,590.915222 14.999845,593.058472 14.999845,595.121155 
	C8.094819,597.008362 6.595256,596.502014 6.000118,591.781982 
M22.979670,568.755981 
	C21.885420,564.137085 18.651577,564.831787 15.394633,565.312073 
	C15.394633,568.729736 15.394633,571.757996 15.394633,574.767517 
	C19.867981,575.371338 23.229723,574.971619 22.979670,568.755981 
z"/>
<path fill="#D4AF37" opacity="1.000000" stroke="#D4AF37" 
	d="
M515.504028,558.581055 
	C515.810547,571.064575 515.810547,583.194702 515.810547,595.660645 
	C513.022278,595.660645 510.430084,595.660645 507.416748,595.660645 
	C507.416748,583.412415 507.416748,571.036194 507.416748,558.227600 
	C510.004028,558.227600 512.600769,558.227600 515.504028,558.581055 
z"/>
<path fill="none" opacity="1.000000" stroke="#D4AF37" 
	d="
M384.000061,452.000549 
	C384.000061,447.544434 384.000061,443.583923 384.000061,438.585724 
	C390.184570,439.166931 395.992188,439.086639 401.454803,440.419952 
	C406.000916,441.529572 408.679657,445.424500 408.971924,450.375153 
	C409.258301,455.226959 408.507324,460.206573 403.462738,461.952698 
	C397.565552,463.994049 391.237335,464.790344 384.000061,466.365295 
	C384.000061,460.658600 384.000061,456.577362 384.000061,452.000549 
z"/>
<path fill="none" opacity="1.000000" stroke="#D4AF37" 
	d="
M496.942566,478.000458 
	C491.134705,478.000458 485.816315,478.000458 479.581177,478.000458 
	C484.361725,468.372742 488.852448,459.328705 493.719482,449.526794 
	C498.530273,459.152161 503.046906,468.188995 507.950684,478.000458 
	C503.921906,478.000458 500.676971,478.000458 496.942566,478.000458 
z"/>
<path fill="none" opacity="1.000000" stroke="#D4AF37" 
	d="
M358.175171,570.634766 
	C356.100983,572.248047 354.138153,573.493530 351.237305,575.334229 
	C351.237305,570.815369 351.237305,568.091614 351.237305,565.146362 
	C355.095154,565.097534 358.265564,565.485718 358.175171,570.634766 
z"/>
<path fill="none" opacity="1.000000" stroke="#D4AF37" 
	d="
M187.979736,573.334106 
	C188.717041,575.847961 189.416565,577.989441 190.271942,580.608154 
	C187.596466,580.608154 185.384048,580.608154 182.481369,580.608154 
	C183.646881,576.983765 184.821976,573.329529 186.199539,569.045715 
	C187.016403,570.881592 187.479172,571.921631 187.979736,573.334106 
z"/>
<path fill="none" opacity="1.000000" stroke="#D4AF37" 
	d="
M22.987888,569.169128 
	C23.229723,574.971619 19.867981,575.371338 15.394633,574.767517 
	C15.394633,571.757996 15.394633,568.729736 15.394633,565.312073 
	C18.651577,564.831787 21.885420,564.137085 22.987888,569.169128 
z"/>
</svg>